<svg xmlns="http://www.w3.org/2000/svg" xmlns:xlink="http://www.w3.org/1999/xlink" width="2000" zoomAndPan="magnify" viewBox="0 0 1500 1499.999933" height="2000" preserveAspectRatio="xMidYMid meet" version="1.0"><defs><clipPath id="aa2bb4fd72"><path d="M 750 0 C 335.785156 0 0 335.785156 0 750 C 0 1164.214844 335.785156 1500 750 1500 C 1164.214844 1500 1500 1164.214844 1500 750 C 1500 335.785156 1164.214844 0 750 0 Z M 750 0 " clip-rule="nonzero"/></clipPath><clipPath id="be569399d7"><path d="M 0 0 L 1500 0 L 1500 1500 L 0 1500 Z M 0 0 " clip-rule="nonzero"/></clipPath><clipPath id="874d238afd"><path d="M 750 0 C 335.785156 0 0 335.785156 0 750 C 0 1164.214844 335.785156 1500 750 1500 C 1164.214844 1500 1500 1164.214844 1500 750 C 1500 335.785156 1164.214844 0 750 0 Z M 750 0 " clip-rule="nonzero"/></clipPath><clipPath id="a120091ab2"><rect x="0" width="1500" y="0" height="1500"/></clipPath><clipPath id="653bafe3d4"><path d="M 0.621094 130.589844 L 220.292969 130.589844 L 220.292969 837.199219 L 0.621094 837.199219 Z M 0.621094 130.589844 " clip-rule="nonzero"/></clipPath><clipPath id="7e823584f8"><path d="M 0.621094 0.589844 L 220.292969 0.589844 L 220.292969 707 L 0.621094 707 Z M 0.621094 0.589844 " clip-rule="nonzero"/></clipPath><clipPath id="02561e0e5d"><rect x="0" width="221" y="0" height="708"/></clipPath><clipPath id="ee377286bb"><path d="M 0.621094 0.800781 L 299.695312 0.800781 L 299.695312 289.714844 L 0.621094 289.714844 Z M 0.621094 0.800781 " clip-rule="nonzero"/></clipPath><clipPath id="5d56076433"><path d="M 17.121094 0.800781 L 282.855469 0.800781 C 291.96875 0.800781 299.355469 8.1875 299.355469 17.300781 L 299.355469 273.214844 C 299.355469 282.328125 291.96875 289.714844 282.855469 289.714844 L 17.121094 289.714844 C 8.007812 289.714844 0.621094 282.328125 0.621094 273.214844 L 0.621094 17.300781 C 0.621094 8.1875 8.007812 0.800781 17.121094 0.800781 Z M 17.121094 0.800781 " clip-rule="nonzero"/></clipPath><clipPath id="d617bd4d45"><path d="M 0.621094 0.800781 L 299.398438 0.800781 L 299.398438 289.714844 L 0.621094 289.714844 Z M 0.621094 0.800781 " clip-rule="nonzero"/></clipPath><clipPath id="74b1d76cd1"><path d="M 17.121094 0.800781 L 282.855469 0.800781 C 291.96875 0.800781 299.355469 8.1875 299.355469 17.300781 L 299.355469 273.214844 C 299.355469 282.328125 291.96875 289.714844 282.855469 289.714844 L 17.121094 289.714844 C 8.007812 289.714844 0.621094 282.328125 0.621094 273.214844 L 0.621094 17.300781 C 0.621094 8.1875 8.007812 0.800781 17.121094 0.800781 Z M 17.121094 0.800781 " clip-rule="nonzero"/></clipPath><clipPath id="25e1b4deb5"><rect x="0" width="300" y="0" height="290"/></clipPath><clipPath id="f06c805a7c"><path d="M 68.792969 0.800781 L 742 0.800781 L 742 289.714844 L 68.792969 289.714844 Z M 68.792969 0.800781 " clip-rule="nonzero"/></clipPath><clipPath id="5648201736"><path d="M 127.292969 0.800781 L 683.402344 0.800781 C 715.710938 0.800781 741.902344 26.992188 741.902344 59.300781 L 741.902344 231.214844 C 741.902344 263.523438 715.710938 289.714844 683.402344 289.714844 L 127.292969 289.714844 C 94.984375 289.714844 68.792969 263.523438 68.792969 231.214844 L 68.792969 59.300781 C 68.792969 26.992188 94.984375 0.800781 127.292969 0.800781 Z M 127.292969 0.800781 " clip-rule="nonzero"/></clipPath><clipPath id="2f844ca65b"><path d="M 0.792969 0.800781 L 673.960938 0.800781 L 673.960938 289.714844 L 0.792969 289.714844 Z M 0.792969 0.800781 " clip-rule="nonzero"/></clipPath><clipPath id="4f7351405f"><path d="M 59.292969 0.800781 L 615.402344 0.800781 C 647.710938 0.800781 673.902344 26.992188 673.902344 59.300781 L 673.902344 231.214844 C 673.902344 263.523438 647.710938 289.714844 615.402344 289.714844 L 59.292969 289.714844 C 26.984375 289.714844 0.792969 263.523438 0.792969 231.214844 L 0.792969 59.300781 C 0.792969 26.992188 26.984375 0.800781 59.292969 0.800781 Z M 59.292969 0.800781 " clip-rule="nonzero"/></clipPath><clipPath id="20959a0c72"><rect x="0" width="674" y="0" height="290"/></clipPath><clipPath id="d37c8712f1"><path d="M 609.566406 418.515625 L 741.847656 418.515625 L 741.847656 570.953125 L 609.566406 570.953125 Z M 609.566406 418.515625 " clip-rule="nonzero"/></clipPath><clipPath id="b7fda82d13"><path d="M 741.847656 418.960938 C 741.847656 458.988281 727.738281 498.128906 703.101562 526.433594 C 678.46875 554.738281 644.402344 570.953125 609.566406 570.953125 L 609.566406 418.960938 Z M 741.847656 418.960938 " clip-rule="nonzero"/></clipPath><clipPath id="061f4d0f1d"><path d="M 0.566406 1 L 132.847656 1 L 132.847656 152.953125 L 0.566406 152.953125 Z M 0.566406 1 " clip-rule="nonzero"/></clipPath><clipPath id="73ab98f97a"><path d="M 132.847656 0.960938 C 132.847656 40.988281 118.738281 80.128906 94.101562 108.433594 C 69.46875 136.738281 35.402344 152.953125 0.566406 152.953125 L 0.566406 0.960938 Z M 132.847656 0.960938 " clip-rule="nonzero"/></clipPath><clipPath id="4442f4c9e0"><rect x="0" width="133" y="0" height="153"/></clipPath><clipPath id="22628fcc6e"><path d="M 626.199219 145.257812 L 741.902344 145.257812 L 741.902344 424.628906 L 626.199219 424.628906 Z M 626.199219 145.257812 " clip-rule="nonzero"/></clipPath><clipPath id="2f56c0a706"><path d="M 0.199219 0.257812 L 115.902344 0.257812 L 115.902344 279.628906 L 0.199219 279.628906 Z M 0.199219 0.257812 " clip-rule="nonzero"/></clipPath><clipPath id="a985392a5f"><rect x="0" width="116" y="0" height="280"/></clipPath><clipPath id="b40fb8da68"><path d="M 591 280 L 638 280 L 638 327 L 591 327 Z M 591 280 " clip-rule="nonzero"/></clipPath><clipPath id="d28312aa47"><path d="M 591.207031 313.722656 L 624.464844 280.464844 L 637.355469 293.355469 L 604.097656 326.613281 Z M 591.207031 313.722656 " clip-rule="nonzero"/></clipPath><clipPath id="eaef69785c"><path d="M 0 0.28125 L 46.558594 0.28125 L 46.558594 46.839844 L 0 46.839844 Z M 0 0.28125 " clip-rule="nonzero"/></clipPath><clipPath id="fec9f0448b"><path d="M 0.207031 33.722656 L 33.464844 0.464844 L 46.355469 13.355469 L 13.097656 46.613281 Z M 0.207031 33.722656 " clip-rule="nonzero"/></clipPath><clipPath id="e6c7fb3c32"><rect x="0" width="47" y="0" height="47"/></clipPath><clipPath id="1449cfc0a1"><path d="M 590.320312 271.351562 L 637.355469 271.351562 L 637.355469 289.578125 L 590.320312 289.578125 Z M 590.320312 271.351562 " clip-rule="nonzero"/></clipPath><clipPath id="7efb1a671c"><path d="M 0.320312 0.351562 L 47.355469 0.351562 L 47.355469 18.578125 L 0.320312 18.578125 Z M 0.320312 0.351562 " clip-rule="nonzero"/></clipPath><clipPath id="535aa9275f"><rect x="0" width="48" y="0" height="19"/></clipPath><clipPath id="ae08589da5"><path d="M 609.574219 303.542969 L 642.738281 303.542969 L 642.738281 424.636719 L 609.574219 424.636719 Z M 609.574219 303.542969 " clip-rule="nonzero"/></clipPath><clipPath id="faff5babe8"><path d="M 0.574219 0.542969 L 33.738281 0.542969 L 33.738281 121.636719 L 0.574219 121.636719 Z M 0.574219 0.542969 " clip-rule="nonzero"/></clipPath><clipPath id="22afb072c9"><rect x="0" width="34" y="0" height="122"/></clipPath><clipPath id="d852978a73"><path d="M 332 293 L 612 293 L 612 572 L 332 572 Z M 332 293 " clip-rule="nonzero"/></clipPath><clipPath id="985be21c17"><path d="M 749.355469 431.695312 L 470.65625 710.394531 L 332.386719 572.125 L 611.085938 293.425781 Z M 749.355469 431.695312 " clip-rule="nonzero"/></clipPath><clipPath id="510978e688"><path d="M 610.140625 570.910156 L 332.652344 571.859375 L 611.085938 293.425781 Z M 610.140625 570.910156 " clip-rule="nonzero"/></clipPath><clipPath id="2c27eef67e"><path d="M 0.519531 0.238281 L 279.160156 0.238281 L 279.160156 278.878906 L 0.519531 278.878906 Z M 0.519531 0.238281 " clip-rule="nonzero"/></clipPath><clipPath id="a5c852255b"><path d="M 417.355469 138.695312 L 138.65625 417.394531 L 0.386719 279.125 L 279.085938 0.425781 Z M 417.355469 138.695312 " clip-rule="nonzero"/></clipPath><clipPath id="090670148c"><path d="M 278.140625 277.910156 L 0.652344 278.859375 L 279.085938 0.425781 Z M 278.140625 277.910156 " clip-rule="nonzero"/></clipPath><clipPath id="d87b62323e"><rect x="0" width="280" y="0" height="279"/></clipPath><clipPath id="2b5d15a1af"><rect x="0" width="750" y="0" height="838"/></clipPath></defs><g clip-path="url(#aa2bb4fd72)"><g transform="matrix(1, 0, 0, 1, 0, 0.000000000000112861)"><g clip-path="url(#a120091ab2)"><g clip-path="url(#be569399d7)"><g clip-path="url(#874d238afd)"><rect x="-330" width="2160" fill="#000734" height="2159.999904" y="-329.999985" fill-opacity="1"/></g></g></g></g><path stroke-linecap="butt" transform="matrix(0.75, 0, 0, 0.75, 0.00003335, -0.00002)" fill="none" stroke-linejoin="miter" d="M 999.999978 0.0000266667 C 447.713507 0.0000266667 -0.0000444667 447.713578 -0.0000444667 1000.000049 C -0.0000444667 1552.286519 447.713507 2000.000071 999.999978 2000.000071 C 1552.286448 2000.000071 2000 1552.286519 2000 1000.000049 C 2000 447.713578 1552.286448 0.0000266667 999.999978 0.0000266667 Z M 999.999978 0.0000266667 " stroke="#faf7ef" stroke-width="60" stroke-opacity="1" stroke-miterlimit="4"/></g><g transform="matrix(1, 0, 0, 1, 375, 331)"><g clip-path="url(#2b5d15a1af)"><g clip-path="url(#653bafe3d4)"><g transform="matrix(1, 0, 0, 1, 0, 130)"><g clip-path="url(#02561e0e5d)"><g clip-path="url(#7e823584f8)"><path fill="#ffffff" d="M 0.621094 0.589844 L 220.292969 0.589844 L 220.292969 706.800781 L 0.621094 706.800781 Z M 0.621094 0.589844 " fill-opacity="1" fill-rule="nonzero"/></g></g></g></g><g clip-path="url(#ee377286bb)"><g clip-path="url(#5d56076433)"><g transform="matrix(1, 0, 0, 1, 0, 0.000000000000113687)"><g clip-path="url(#25e1b4deb5)"><g clip-path="url(#d617bd4d45)"><g clip-path="url(#74b1d76cd1)"><path fill="#ffffff" d="M 0.621094 0.800781 L 299.695312 0.800781 L 299.695312 289.714844 L 0.621094 289.714844 Z M 0.621094 0.800781 " fill-opacity="1" fill-rule="nonzero"/></g></g></g></g></g></g><g clip-path="url(#f06c805a7c)"><g clip-path="url(#5648201736)"><g transform="matrix(1, 0, 0, 1, 68, 0.000000000000113687)"><g clip-path="url(#20959a0c72)"><g clip-path="url(#2f844ca65b)"><g clip-path="url(#4f7351405f)"><path fill="#ffffff" d="M 0.792969 0.800781 L 673.425781 0.800781 L 673.425781 289.714844 L 0.792969 289.714844 Z M 0.792969 0.800781 " fill-opacity="1" fill-rule="nonzero"/></g></g></g></g></g></g><g clip-path="url(#d37c8712f1)"><g clip-path="url(#b7fda82d13)"><g transform="matrix(1, 0, 0, 1, 609, 418)"><g clip-path="url(#4442f4c9e0)"><g clip-path="url(#061f4d0f1d)"><g clip-path="url(#73ab98f97a)"><path fill="#ffffff" d="M 132.847656 152.953125 L 0.566406 152.953125 L 0.566406 1.03125 L 132.847656 1.03125 Z M 132.847656 152.953125 " fill-opacity="1" fill-rule="nonzero"/></g></g></g></g></g></g><g clip-path="url(#22628fcc6e)"><g transform="matrix(1, 0, 0, 1, 626, 145)"><g clip-path="url(#a985392a5f)"><g clip-path="url(#2f56c0a706)"><path fill="#ffffff" d="M 0.199219 0.257812 L 115.902344 0.257812 L 115.902344 279.566406 L 0.199219 279.566406 Z M 0.199219 0.257812 " fill-opacity="1" fill-rule="nonzero"/></g></g></g></g><g clip-path="url(#b40fb8da68)"><g clip-path="url(#d28312aa47)"><g transform="matrix(1, 0, 0, 1, 591, 280)"><g clip-path="url(#e6c7fb3c32)"><g clip-path="url(#eaef69785c)"><g clip-path="url(#fec9f0448b)"><path fill="#ffffff" d="M 0.207031 33.722656 L 33.488281 0.441406 L 46.378906 13.332031 L 13.097656 46.613281 Z M 0.207031 33.722656 " fill-opacity="1" fill-rule="nonzero"/></g></g></g></g></g></g><g clip-path="url(#1449cfc0a1)"><g transform="matrix(1, 0, 0, 1, 590, 271)"><g clip-path="url(#535aa9275f)"><g clip-path="url(#7efb1a671c)"><path fill="#ffffff" d="M 0.320312 0.351562 L 47.386719 0.351562 L 47.386719 18.578125 L 0.320312 18.578125 Z M 0.320312 0.351562 " fill-opacity="1" fill-rule="nonzero"/></g></g></g></g><g clip-path="url(#ae08589da5)"><g transform="matrix(1, 0, 0, 1, 609, 303)"><g clip-path="url(#22afb072c9)"><g clip-path="url(#faff5babe8)"><path fill="#ffffff" d="M 33.738281 0.542969 L 33.738281 121.675781 L 0.574219 121.675781 L 0.574219 0.542969 Z M 33.738281 0.542969 " fill-opacity="1" fill-rule="nonzero"/></g></g></g></g><g clip-path="url(#d852978a73)"><g clip-path="url(#985be21c17)"><g clip-path="url(#510978e688)"><g transform="matrix(1, 0, 0, 1, 332, 293)"><g clip-path="url(#d87b62323e)"><g clip-path="url(#2c27eef67e)"><g clip-path="url(#a5c852255b)"><g clip-path="url(#090670148c)"><path fill="#ffffff" d="M 417.355469 138.695312 L 138.65625 417.394531 L 0.386719 279.125 L 279.085938 0.425781 Z M 417.355469 138.695312 " fill-opacity="1" fill-rule="nonzero"/></g></g></g></g></g></g></g></g></g></g></svg>