<svg xmlns="http://www.w3.org/2000/svg" xmlns:xlink="http://www.w3.org/1999/xlink" width="2000" zoomAndPan="magnify" viewBox="0 0 1500 1499.999933" height="2000" preserveAspectRatio="xMidYMid meet" version="1.0"><defs><clipPath id="1829a6e5eb"><path d="M 0.730469 140.789062 L 238.527344 140.789062 L 238.527344 905.707031 L 0.730469 905.707031 Z M 0.730469 140.789062 " clip-rule="nonzero"/></clipPath><clipPath id="bf0fd49305"><path d="M 0.730469 0.789062 L 238.527344 0.789062 L 238.527344 765.707031 L 0.730469 765.707031 Z M 0.730469 0.789062 " clip-rule="nonzero"/></clipPath><clipPath id="fe8604004b"><rect x="0" width="239" y="0" height="766"/></clipPath><clipPath id="dc9415d79c"><path d="M 0.730469 0.292969 L 324.480469 0.292969 L 324.480469 313.046875 L 0.730469 313.046875 Z M 0.730469 0.292969 " clip-rule="nonzero"/></clipPath><clipPath id="529846b07d"><path d="M 17.230469 0.292969 L 307.613281 0.292969 C 311.992188 0.292969 316.1875 2.03125 319.28125 5.125 C 322.375 8.21875 324.113281 12.414062 324.113281 16.792969 L 324.113281 296.546875 C 324.113281 300.921875 322.375 305.121094 319.28125 308.214844 C 316.1875 311.308594 311.992188 313.046875 307.613281 313.046875 L 17.230469 313.046875 C 12.851562 313.046875 8.65625 311.308594 5.5625 308.214844 C 2.46875 305.121094 0.730469 300.921875 0.730469 296.546875 L 0.730469 16.792969 C 0.730469 12.414062 2.46875 8.21875 5.5625 5.125 C 8.65625 2.03125 12.851562 0.292969 17.230469 0.292969 Z M 17.230469 0.292969 " clip-rule="nonzero"/></clipPath><clipPath id="98b0c94a94"><path d="M 0.730469 0.292969 L 324.160156 0.292969 L 324.160156 313.046875 L 0.730469 313.046875 Z M 0.730469 0.292969 " clip-rule="nonzero"/></clipPath><clipPath id="efabe294f5"><path d="M 17.230469 0.292969 L 307.613281 0.292969 C 311.992188 0.292969 316.1875 2.03125 319.28125 5.125 C 322.375 8.21875 324.113281 12.414062 324.113281 16.792969 L 324.113281 296.546875 C 324.113281 300.921875 322.375 305.121094 319.28125 308.214844 C 316.1875 311.308594 311.992188 313.046875 307.613281 313.046875 L 17.230469 313.046875 C 12.851562 313.046875 8.65625 311.308594 5.5625 308.214844 C 2.46875 305.121094 0.730469 300.921875 0.730469 296.546875 L 0.730469 16.792969 C 0.730469 12.414062 2.46875 8.21875 5.5625 5.125 C 8.65625 2.03125 12.851562 0.292969 17.230469 0.292969 Z M 17.230469 0.292969 " clip-rule="nonzero"/></clipPath><clipPath id="0fd36001d6"><rect x="0" width="325" y="0" height="314"/></clipPath><clipPath id="64ba5ffe10"><path d="M 74.527344 0.292969 L 803.882812 0.292969 L 803.882812 313.046875 L 74.527344 313.046875 Z M 74.527344 0.292969 " clip-rule="nonzero"/></clipPath><clipPath id="424e451c68"><path d="M 133.027344 0.292969 L 744.675781 0.292969 C 776.984375 0.292969 803.175781 26.484375 803.175781 58.792969 L 803.175781 254.546875 C 803.175781 286.855469 776.984375 313.046875 744.675781 313.046875 L 133.027344 313.046875 C 100.71875 313.046875 74.527344 286.855469 74.527344 254.546875 L 74.527344 58.792969 C 74.527344 26.484375 100.71875 0.292969 133.027344 0.292969 Z M 133.027344 0.292969 " clip-rule="nonzero"/></clipPath><clipPath id="5c6db00c49"><path d="M 0.527344 0.292969 L 729 0.292969 L 729 313.046875 L 0.527344 313.046875 Z M 0.527344 0.292969 " clip-rule="nonzero"/></clipPath><clipPath id="5802903f7a"><path d="M 59.027344 0.292969 L 670.675781 0.292969 C 702.984375 0.292969 729.175781 26.484375 729.175781 58.792969 L 729.175781 254.546875 C 729.175781 286.855469 702.984375 313.046875 670.675781 313.046875 L 59.027344 313.046875 C 26.71875 313.046875 0.527344 286.855469 0.527344 254.546875 L 0.527344 58.792969 C 0.527344 26.484375 26.71875 0.292969 59.027344 0.292969 Z M 59.027344 0.292969 " clip-rule="nonzero"/></clipPath><clipPath id="4a1631e20e"><rect x="0" width="730" y="0" height="314"/></clipPath><clipPath id="e2f433510e"><path d="M 659.921875 452.476562 L 803.117188 452.476562 L 803.117188 617.492188 L 659.921875 617.492188 Z M 659.921875 452.476562 " clip-rule="nonzero"/></clipPath><clipPath id="8dfde85580"><path d="M 803.117188 452.957031 C 803.117188 496.289062 787.84375 538.660156 761.175781 569.300781 C 734.511719 599.941406 697.632812 617.492188 659.921875 617.492188 L 659.921875 452.957031 Z M 803.117188 452.957031 " clip-rule="nonzero"/></clipPath><clipPath id="311b149dd3"><path d="M 0.921875 1 L 144.117188 1 L 144.117188 165.492188 L 0.921875 165.492188 Z M 0.921875 1 " clip-rule="nonzero"/></clipPath><clipPath id="82690f0375"><path d="M 144.117188 0.957031 C 144.117188 44.289062 128.84375 86.660156 102.175781 117.300781 C 75.511719 147.941406 38.632812 165.492188 0.921875 165.492188 L 0.921875 0.957031 Z M 144.117188 0.957031 " clip-rule="nonzero"/></clipPath><clipPath id="c38c7e1428"><rect x="0" width="145" y="0" height="166"/></clipPath><clipPath id="540a0895f6"><path d="M 677.925781 156.667969 L 803.175781 156.667969 L 803.175781 459.09375 L 677.925781 459.09375 Z M 677.925781 156.667969 " clip-rule="nonzero"/></clipPath><clipPath id="136424047b"><path d="M 0.925781 0.667969 L 126.175781 0.667969 L 126.175781 303.09375 L 0.925781 303.09375 Z M 0.925781 0.667969 " clip-rule="nonzero"/></clipPath><clipPath id="c071ffc62f"><rect x="0" width="127" y="0" height="304"/></clipPath><clipPath id="19224e7409"><path d="M 640 303 L 691 303 L 691 353 L 640 353 Z M 640 303 " clip-rule="nonzero"/></clipPath><clipPath id="6a3dc92ded"><path d="M 640.046875 339.035156 L 676.050781 303.035156 L 690.003906 316.984375 L 654 352.988281 Z M 640.046875 339.035156 " clip-rule="nonzero"/></clipPath><clipPath id="b01ef75f8b"><path d="M 0 0 L 50.160156 0 L 50.160156 50 L 0 50 Z M 0 0 " clip-rule="nonzero"/></clipPath><clipPath id="6f10db42c8"><path d="M 0.046875 36.035156 L 36.050781 0.0351562 L 50.003906 13.984375 L 14 49.988281 Z M 0.046875 36.035156 " clip-rule="nonzero"/></clipPath><clipPath id="df5aded931"><rect x="0" width="51" y="0" height="50"/></clipPath><clipPath id="668d8465d8"><path d="M 639.089844 293.167969 L 690.003906 293.167969 L 690.003906 312.902344 L 639.089844 312.902344 Z M 639.089844 293.167969 " clip-rule="nonzero"/></clipPath><clipPath id="63621c2276"><path d="M 0.0898438 0.167969 L 51.003906 0.167969 L 51.003906 19.902344 L 0.0898438 19.902344 Z M 0.0898438 0.167969 " clip-rule="nonzero"/></clipPath><clipPath id="2221d0ac96"><rect x="0" width="52" y="0" height="20"/></clipPath><clipPath id="fabb292c49"><path d="M 659.929688 328.019531 L 695.832031 328.019531 L 695.832031 459.101562 L 659.929688 459.101562 Z M 659.929688 328.019531 " clip-rule="nonzero"/></clipPath><clipPath id="e56bb9e8c0"><path d="M 0.929688 0.0195312 L 36.832031 0.0195312 L 36.832031 131.101562 L 0.929688 131.101562 Z M 0.929688 0.0195312 " clip-rule="nonzero"/></clipPath><clipPath id="23b95df11c"><rect x="0" width="37" y="0" height="132"/></clipPath><clipPath id="180c271a14"><path d="M 360 317 L 662 317 L 662 619 L 360 619 Z M 360 317 " clip-rule="nonzero"/></clipPath><clipPath id="5af775968a"><path d="M 811.246094 466.742188 L 509.550781 768.4375 L 359.871094 618.761719 L 661.566406 317.0625 Z M 811.246094 466.742188 " clip-rule="nonzero"/></clipPath><clipPath id="f9ac3837c0"><path d="M 660.542969 617.445312 L 360.160156 618.472656 L 661.566406 317.0625 Z M 660.542969 617.445312 " clip-rule="nonzero"/></clipPath><clipPath id="1b31500a74"><path d="M 0 0 L 301.601562 0 L 301.601562 301.601562 L 0 301.601562 Z M 0 0 " clip-rule="nonzero"/></clipPath><clipPath id="357d1ded08"><path d="M 451.246094 149.742188 L 149.550781 451.4375 L -0.128906 301.761719 L 301.566406 0.0625 Z M 451.246094 149.742188 " clip-rule="nonzero"/></clipPath><clipPath id="5d14d861e7"><path d="M 300.542969 300.445312 L 0.160156 301.472656 L 301.566406 0.0625 Z M 300.542969 300.445312 " clip-rule="nonzero"/></clipPath><clipPath id="9be1e97466"><rect x="0" width="302" y="0" height="302"/></clipPath><clipPath id="06af119737"><rect x="0" width="812" y="0" height="907"/></clipPath></defs><g transform="matrix(1, 0, 0, 1, 344, 297)"><g clip-path="url(#06af119737)"><g clip-path="url(#1829a6e5eb)"><g transform="matrix(1, 0, 0, 1, 0, 140)"><g clip-path="url(#fe8604004b)"><g clip-path="url(#bf0fd49305)"><path fill="#000734" d="M 0.730469 0.789062 L 238.527344 0.789062 L 238.527344 765.277344 L 0.730469 765.277344 Z M 0.730469 0.789062 " fill-opacity="1" fill-rule="nonzero"/></g></g></g></g><g clip-path="url(#dc9415d79c)"><g clip-path="url(#529846b07d)"><g transform="matrix(1, 0, 0, 1, 0, 0.000000000000113687)"><g clip-path="url(#0fd36001d6)"><g clip-path="url(#98b0c94a94)"><g clip-path="url(#efabe294f5)"><path fill="#000734" d="M 0.730469 0.292969 L 324.480469 0.292969 L 324.480469 313.046875 L 0.730469 313.046875 Z M 0.730469 0.292969 " fill-opacity="1" fill-rule="nonzero"/></g></g></g></g></g></g><g clip-path="url(#64ba5ffe10)"><g clip-path="url(#424e451c68)"><g transform="matrix(1, 0, 0, 1, 74, 0.000000000000113687)"><g clip-path="url(#4a1631e20e)"><g clip-path="url(#5c6db00c49)"><g clip-path="url(#5802903f7a)"><path fill="#000734" d="M 0.527344 0.292969 L 728.664062 0.292969 L 728.664062 313.046875 L 0.527344 313.046875 Z M 0.527344 0.292969 " fill-opacity="1" fill-rule="nonzero"/></g></g></g></g></g></g><g clip-path="url(#e2f433510e)"><g clip-path="url(#8dfde85580)"><g transform="matrix(1, 0, 0, 1, 659, 452)"><g clip-path="url(#c38c7e1428)"><g clip-path="url(#311b149dd3)"><g clip-path="url(#82690f0375)"><path fill="#000734" d="M 144.117188 165.492188 L 0.921875 165.492188 L 0.921875 1.035156 L 144.117188 1.035156 Z M 144.117188 165.492188 " fill-opacity="1" fill-rule="nonzero"/></g></g></g></g></g></g><g clip-path="url(#540a0895f6)"><g transform="matrix(1, 0, 0, 1, 677, 156)"><g clip-path="url(#c071ffc62f)"><g clip-path="url(#136424047b)"><path fill="#000734" d="M 0.925781 0.667969 L 126.175781 0.667969 L 126.175781 303.027344 L 0.925781 303.027344 Z M 0.925781 0.667969 " fill-opacity="1" fill-rule="nonzero"/></g></g></g></g><g clip-path="url(#19224e7409)"><g clip-path="url(#6a3dc92ded)"><g transform="matrix(1, 0, 0, 1, 640, 303)"><g clip-path="url(#df5aded931)"><g clip-path="url(#b01ef75f8b)"><g clip-path="url(#6f10db42c8)"><path fill="#000734" d="M 0.046875 36.035156 L 36.074219 0.0078125 L 50.027344 13.960938 L 14 49.988281 Z M 0.046875 36.035156 " fill-opacity="1" fill-rule="nonzero"/></g></g></g></g></g></g><g clip-path="url(#668d8465d8)"><g transform="matrix(1, 0, 0, 1, 639, 293)"><g clip-path="url(#2221d0ac96)"><g clip-path="url(#63621c2276)"><path fill="#000734" d="M 0.0898438 0.167969 L 51.039062 0.167969 L 51.039062 19.902344 L 0.0898438 19.902344 Z M 0.0898438 0.167969 " fill-opacity="1" fill-rule="nonzero"/></g></g></g></g><g clip-path="url(#fabb292c49)"><g transform="matrix(1, 0, 0, 1, 659, 328)"><g clip-path="url(#23b95df11c)"><g clip-path="url(#e56bb9e8c0)"><path fill="#000734" d="M 36.832031 0.0195312 L 36.832031 131.144531 L 0.929688 131.144531 L 0.929688 0.0195312 Z M 36.832031 0.0195312 " fill-opacity="1" fill-rule="nonzero"/></g></g></g></g><g clip-path="url(#180c271a14)"><g clip-path="url(#5af775968a)"><g clip-path="url(#f9ac3837c0)"><g transform="matrix(1, 0, 0, 1, 360, 317)"><g clip-path="url(#9be1e97466)"><g clip-path="url(#1b31500a74)"><g clip-path="url(#357d1ded08)"><g clip-path="url(#5d14d861e7)"><path fill="#000734" d="M 451.246094 149.742188 L 149.550781 451.4375 L -0.128906 301.761719 L 301.566406 0.0625 Z M 451.246094 149.742188 " fill-opacity="1" fill-rule="nonzero"/></g></g></g></g></g></g></g></g></g></g></svg>