<svg xmlns="http://www.w3.org/2000/svg" xmlns:xlink="http://www.w3.org/1999/xlink" width="2000" zoomAndPan="magnify" viewBox="0 0 1500 1499.999933" height="2000" preserveAspectRatio="xMidYMid meet" version="1.0"><defs><clipPath id="d634de2c65"><path d="M 0.730469 140.789062 L 238.527344 140.789062 L 238.527344 905.707031 L 0.730469 905.707031 Z M 0.730469 140.789062 " clip-rule="nonzero"/></clipPath><clipPath id="a7d541a87c"><path d="M 0.730469 0.789062 L 238.527344 0.789062 L 238.527344 765.707031 L 0.730469 765.707031 Z M 0.730469 0.789062 " clip-rule="nonzero"/></clipPath><clipPath id="1bf3b86e28"><rect x="0" width="239" y="0" height="766"/></clipPath><clipPath id="af8bce138c"><path d="M 0.730469 0.292969 L 324.480469 0.292969 L 324.480469 313.046875 L 0.730469 313.046875 Z M 0.730469 0.292969 " clip-rule="nonzero"/></clipPath><clipPath id="829d8ddf8c"><path d="M 17.230469 0.292969 L 307.613281 0.292969 C 311.992188 0.292969 316.1875 2.03125 319.28125 5.125 C 322.375 8.21875 324.113281 12.414062 324.113281 16.792969 L 324.113281 296.546875 C 324.113281 300.925781 322.375 305.121094 319.28125 308.214844 C 316.1875 311.308594 311.992188 313.046875 307.613281 313.046875 L 17.230469 313.046875 C 12.851562 313.046875 8.65625 311.308594 5.5625 308.214844 C 2.46875 305.121094 0.730469 300.925781 0.730469 296.546875 L 0.730469 16.792969 C 0.730469 12.414062 2.46875 8.21875 5.5625 5.125 C 8.65625 2.03125 12.851562 0.292969 17.230469 0.292969 Z M 17.230469 0.292969 " clip-rule="nonzero"/></clipPath><clipPath id="2e16abc783"><path d="M 0.730469 0.292969 L 324.160156 0.292969 L 324.160156 313.046875 L 0.730469 313.046875 Z M 0.730469 0.292969 " clip-rule="nonzero"/></clipPath><clipPath id="e54f17022c"><path d="M 17.230469 0.292969 L 307.613281 0.292969 C 311.992188 0.292969 316.1875 2.03125 319.28125 5.125 C 322.375 8.21875 324.113281 12.414062 324.113281 16.792969 L 324.113281 296.546875 C 324.113281 300.925781 322.375 305.121094 319.28125 308.214844 C 316.1875 311.308594 311.992188 313.046875 307.613281 313.046875 L 17.230469 313.046875 C 12.851562 313.046875 8.65625 311.308594 5.5625 308.214844 C 2.46875 305.121094 0.730469 300.925781 0.730469 296.546875 L 0.730469 16.792969 C 0.730469 12.414062 2.46875 8.21875 5.5625 5.125 C 8.65625 2.03125 12.851562 0.292969 17.230469 0.292969 Z M 17.230469 0.292969 " clip-rule="nonzero"/></clipPath><clipPath id="bcc9a91081"><rect x="0" width="325" y="0" height="314"/></clipPath><clipPath id="b8d239d62d"><path d="M 74.527344 0.292969 L 803.882812 0.292969 L 803.882812 313.046875 L 74.527344 313.046875 Z M 74.527344 0.292969 " clip-rule="nonzero"/></clipPath><clipPath id="8643c512ca"><path d="M 133.027344 0.292969 L 744.675781 0.292969 C 776.984375 0.292969 803.175781 26.484375 803.175781 58.792969 L 803.175781 254.546875 C 803.175781 286.855469 776.984375 313.046875 744.675781 313.046875 L 133.027344 313.046875 C 100.71875 313.046875 74.527344 286.855469 74.527344 254.546875 L 74.527344 58.792969 C 74.527344 26.484375 100.71875 0.292969 133.027344 0.292969 Z M 133.027344 0.292969 " clip-rule="nonzero"/></clipPath><clipPath id="17cd0704bd"><path d="M 0.527344 0.292969 L 729 0.292969 L 729 313.046875 L 0.527344 313.046875 Z M 0.527344 0.292969 " clip-rule="nonzero"/></clipPath><clipPath id="d5aca2a334"><path d="M 59.027344 0.292969 L 670.675781 0.292969 C 702.984375 0.292969 729.175781 26.484375 729.175781 58.792969 L 729.175781 254.546875 C 729.175781 286.855469 702.984375 313.046875 670.675781 313.046875 L 59.027344 313.046875 C 26.71875 313.046875 0.527344 286.855469 0.527344 254.546875 L 0.527344 58.792969 C 0.527344 26.484375 26.71875 0.292969 59.027344 0.292969 Z M 59.027344 0.292969 " clip-rule="nonzero"/></clipPath><clipPath id="84e70b5772"><rect x="0" width="730" y="0" height="314"/></clipPath><clipPath id="64e3e989bd"><path d="M 659.921875 452.476562 L 803.117188 452.476562 L 803.117188 617.492188 L 659.921875 617.492188 Z M 659.921875 452.476562 " clip-rule="nonzero"/></clipPath><clipPath id="23735fa460"><path d="M 803.117188 452.957031 C 803.117188 496.289062 787.84375 538.660156 761.175781 569.300781 C 734.511719 599.941406 697.632812 617.492188 659.921875 617.492188 L 659.921875 452.957031 Z M 803.117188 452.957031 " clip-rule="nonzero"/></clipPath><clipPath id="3353a70d87"><path d="M 0.921875 1 L 144.117188 1 L 144.117188 165.492188 L 0.921875 165.492188 Z M 0.921875 1 " clip-rule="nonzero"/></clipPath><clipPath id="fcb7418701"><path d="M 144.117188 0.957031 C 144.117188 44.289062 128.84375 86.660156 102.175781 117.300781 C 75.511719 147.941406 38.632812 165.492188 0.921875 165.492188 L 0.921875 0.957031 Z M 144.117188 0.957031 " clip-rule="nonzero"/></clipPath><clipPath id="84d6bfbb5d"><rect x="0" width="145" y="0" height="166"/></clipPath><clipPath id="6fea26b7ec"><path d="M 677.925781 156.667969 L 803.175781 156.667969 L 803.175781 459.09375 L 677.925781 459.09375 Z M 677.925781 156.667969 " clip-rule="nonzero"/></clipPath><clipPath id="dde8172c8d"><path d="M 0.925781 0.667969 L 126.175781 0.667969 L 126.175781 303.09375 L 0.925781 303.09375 Z M 0.925781 0.667969 " clip-rule="nonzero"/></clipPath><clipPath id="b33f3366ef"><rect x="0" width="127" y="0" height="304"/></clipPath><clipPath id="b6ed4e1708"><path d="M 640 303 L 691 303 L 691 353 L 640 353 Z M 640 303 " clip-rule="nonzero"/></clipPath><clipPath id="745a01b4d8"><path d="M 640.046875 339.035156 L 676.050781 303.035156 L 690.003906 316.984375 L 654 352.988281 Z M 640.046875 339.035156 " clip-rule="nonzero"/></clipPath><clipPath id="3fce613660"><path d="M 0 0 L 50.160156 0 L 50.160156 50 L 0 50 Z M 0 0 " clip-rule="nonzero"/></clipPath><clipPath id="f201abe6e8"><path d="M 0.046875 36.035156 L 36.050781 0.0351562 L 50.003906 13.984375 L 14 49.988281 Z M 0.046875 36.035156 " clip-rule="nonzero"/></clipPath><clipPath id="b9946385bb"><rect x="0" width="51" y="0" height="50"/></clipPath><clipPath id="f543ad5d7d"><path d="M 639.089844 293.167969 L 690.003906 293.167969 L 690.003906 312.902344 L 639.089844 312.902344 Z M 639.089844 293.167969 " clip-rule="nonzero"/></clipPath><clipPath id="c1a847d691"><path d="M 0.0898438 0.167969 L 51.003906 0.167969 L 51.003906 19.902344 L 0.0898438 19.902344 Z M 0.0898438 0.167969 " clip-rule="nonzero"/></clipPath><clipPath id="0faad3f049"><rect x="0" width="52" y="0" height="20"/></clipPath><clipPath id="7233f9e2eb"><path d="M 659.929688 328.019531 L 695.832031 328.019531 L 695.832031 459.101562 L 659.929688 459.101562 Z M 659.929688 328.019531 " clip-rule="nonzero"/></clipPath><clipPath id="3e717e08b0"><path d="M 0.929688 0.0195312 L 36.832031 0.0195312 L 36.832031 131.101562 L 0.929688 131.101562 Z M 0.929688 0.0195312 " clip-rule="nonzero"/></clipPath><clipPath id="de2c403af4"><rect x="0" width="37" y="0" height="132"/></clipPath><clipPath id="f02fbf9534"><path d="M 360 317 L 662 317 L 662 619 L 360 619 Z M 360 317 " clip-rule="nonzero"/></clipPath><clipPath id="8f24904f3f"><path d="M 811.246094 466.742188 L 509.550781 768.4375 L 359.871094 618.761719 L 661.566406 317.0625 Z M 811.246094 466.742188 " clip-rule="nonzero"/></clipPath><clipPath id="5654ef2823"><path d="M 660.542969 617.445312 L 360.160156 618.472656 L 661.566406 317.0625 Z M 660.542969 617.445312 " clip-rule="nonzero"/></clipPath><clipPath id="c5a5cd61e1"><path d="M 0 0 L 301.601562 0 L 301.601562 301.601562 L 0 301.601562 Z M 0 0 " clip-rule="nonzero"/></clipPath><clipPath id="f5f4e94cbd"><path d="M 451.246094 149.742188 L 149.550781 451.4375 L -0.128906 301.761719 L 301.566406 0.0625 Z M 451.246094 149.742188 " clip-rule="nonzero"/></clipPath><clipPath id="1242ea71e3"><path d="M 300.542969 300.445312 L 0.160156 301.472656 L 301.566406 0.0625 Z M 300.542969 300.445312 " clip-rule="nonzero"/></clipPath><clipPath id="2fb4e15d4b"><rect x="0" width="302" y="0" height="302"/></clipPath><clipPath id="71d13d6dbe"><rect x="0" width="812" y="0" height="907"/></clipPath></defs><g transform="matrix(1, 0, 0, 1, 344, 297)"><g clip-path="url(#71d13d6dbe)"><g clip-path="url(#d634de2c65)"><g transform="matrix(1, 0, 0, 1, 0, 140)"><g clip-path="url(#1bf3b86e28)"><g clip-path="url(#a7d541a87c)"><path fill="#ffffff" d="M 0.730469 0.789062 L 238.527344 0.789062 L 238.527344 765.277344 L 0.730469 765.277344 Z M 0.730469 0.789062 " fill-opacity="1" fill-rule="nonzero"/></g></g></g></g><g clip-path="url(#af8bce138c)"><g clip-path="url(#829d8ddf8c)"><g transform="matrix(1, 0, 0, 1, 0, 0.000000000000113687)"><g clip-path="url(#bcc9a91081)"><g clip-path="url(#2e16abc783)"><g clip-path="url(#e54f17022c)"><path fill="#ffffff" d="M 0.730469 0.292969 L 324.480469 0.292969 L 324.480469 313.046875 L 0.730469 313.046875 Z M 0.730469 0.292969 " fill-opacity="1" fill-rule="nonzero"/></g></g></g></g></g></g><g clip-path="url(#b8d239d62d)"><g clip-path="url(#8643c512ca)"><g transform="matrix(1, 0, 0, 1, 74, 0.000000000000113687)"><g clip-path="url(#84e70b5772)"><g clip-path="url(#17cd0704bd)"><g clip-path="url(#d5aca2a334)"><path fill="#ffffff" d="M 0.527344 0.292969 L 728.664062 0.292969 L 728.664062 313.046875 L 0.527344 313.046875 Z M 0.527344 0.292969 " fill-opacity="1" fill-rule="nonzero"/></g></g></g></g></g></g><g clip-path="url(#64e3e989bd)"><g clip-path="url(#23735fa460)"><g transform="matrix(1, 0, 0, 1, 659, 452)"><g clip-path="url(#84d6bfbb5d)"><g clip-path="url(#3353a70d87)"><g clip-path="url(#fcb7418701)"><path fill="#ffffff" d="M 144.117188 165.492188 L 0.921875 165.492188 L 0.921875 1.035156 L 144.117188 1.035156 Z M 144.117188 165.492188 " fill-opacity="1" fill-rule="nonzero"/></g></g></g></g></g></g><g clip-path="url(#6fea26b7ec)"><g transform="matrix(1, 0, 0, 1, 677, 156)"><g clip-path="url(#b33f3366ef)"><g clip-path="url(#dde8172c8d)"><path fill="#ffffff" d="M 0.925781 0.667969 L 126.175781 0.667969 L 126.175781 303.027344 L 0.925781 303.027344 Z M 0.925781 0.667969 " fill-opacity="1" fill-rule="nonzero"/></g></g></g></g><g clip-path="url(#b6ed4e1708)"><g clip-path="url(#745a01b4d8)"><g transform="matrix(1, 0, 0, 1, 640, 303)"><g clip-path="url(#b9946385bb)"><g clip-path="url(#3fce613660)"><g clip-path="url(#f201abe6e8)"><path fill="#ffffff" d="M 0.046875 36.035156 L 36.074219 0.0078125 L 50.027344 13.960938 L 14 49.988281 Z M 0.046875 36.035156 " fill-opacity="1" fill-rule="nonzero"/></g></g></g></g></g></g><g clip-path="url(#f543ad5d7d)"><g transform="matrix(1, 0, 0, 1, 639, 293)"><g clip-path="url(#0faad3f049)"><g clip-path="url(#c1a847d691)"><path fill="#ffffff" d="M 0.0898438 0.167969 L 51.039062 0.167969 L 51.039062 19.902344 L 0.0898438 19.902344 Z M 0.0898438 0.167969 " fill-opacity="1" fill-rule="nonzero"/></g></g></g></g><g clip-path="url(#7233f9e2eb)"><g transform="matrix(1, 0, 0, 1, 659, 328)"><g clip-path="url(#de2c403af4)"><g clip-path="url(#3e717e08b0)"><path fill="#ffffff" d="M 36.832031 0.0195312 L 36.832031 131.144531 L 0.929688 131.144531 L 0.929688 0.0195312 Z M 36.832031 0.0195312 " fill-opacity="1" fill-rule="nonzero"/></g></g></g></g><g clip-path="url(#f02fbf9534)"><g clip-path="url(#8f24904f3f)"><g clip-path="url(#5654ef2823)"><g transform="matrix(1, 0, 0, 1, 360, 317)"><g clip-path="url(#2fb4e15d4b)"><g clip-path="url(#c5a5cd61e1)"><g clip-path="url(#f5f4e94cbd)"><g clip-path="url(#1242ea71e3)"><path fill="#ffffff" d="M 451.246094 149.742188 L 149.550781 451.4375 L -0.128906 301.761719 L 301.566406 0.0625 Z M 451.246094 149.742188 " fill-opacity="1" fill-rule="nonzero"/></g></g></g></g></g></g></g></g></g></g></svg>